<svg width="149" height="150" viewBox="0 0 149 150" fill="none" xmlns="http://www.w3.org/2000/svg">
<path d="M128.585 84.2666L133.606 81.9623L130.041 77.7266L130.389 76.1649L134.756 81.3987L140.614 78.6457L140.266 80.2075L135.558 82.3969L138.893 86.3765L138.554 87.8992L134.417 82.9214L128.233 85.8479L128.585 84.2666Z" fill="black"/>
<path d="M137.591 95.7038L136.909 96.9497L129.574 92.9387L133.541 103.109L132.937 104.214L123.707 99.1672L124.388 97.9213L131.723 101.932L127.746 91.7796L128.36 90.6565L137.591 95.7038Z" fill="black"/>
<path d="M124.484 115.955L127.042 112.906L119.949 106.954L120.861 105.866L127.955 111.819L130.513 108.77L131.478 109.58L125.449 116.765L124.484 115.955Z" fill="black"/>
<path d="M111.228 118.219L116.198 127.468L107.882 131.936L102.912 122.687L104.163 122.014L108.726 130.506L108.229 130.342L114.677 126.878L114.54 127.383L109.977 118.891L111.228 118.219Z" fill="black"/>
<path d="M94.9632 137.348C93.9985 137.555 93.0775 137.521 92.2002 137.245C91.3256 136.983 90.5814 136.502 89.9676 135.802C89.3537 135.102 88.9376 134.243 88.7194 133.226C88.4984 132.196 88.5242 131.236 88.7968 130.346C89.0694 129.456 89.5492 128.705 90.2363 128.094C90.9132 127.498 91.7404 127.096 92.7182 126.886C93.5525 126.707 94.345 126.714 95.0957 126.908C95.836 127.117 96.4927 127.508 97.0656 128.081L95.8361 122.351L97.2245 122.053L100.246 136.133L98.916 136.418L98.4796 134.384C98.2079 135.152 97.7723 135.791 97.1727 136.301C96.5601 136.814 95.8236 137.163 94.9632 137.348ZM93.0803 128.097C92.3633 128.251 91.7465 128.554 91.2297 129.006C90.7158 129.47 90.3617 130.044 90.1672 130.727C89.9598 131.412 89.94 132.146 90.1078 132.928C90.2757 133.711 90.5934 134.365 91.061 134.892C91.5184 135.435 92.0768 135.813 92.7362 136.026C93.3956 136.239 94.0838 136.268 94.8008 136.115C95.5308 135.958 96.1528 135.647 96.6667 135.182C97.1676 134.72 97.5218 134.147 97.7292 133.461C97.9265 132.791 97.9412 132.066 97.7733 131.283C97.6055 130.501 97.2928 129.839 96.8354 129.296C96.365 128.756 95.8066 128.378 95.1603 128.162C94.5037 127.962 93.8104 127.94 93.0803 128.097Z" fill="black"/>
<path d="M78.6057 130.605C79.6178 130.656 80.5186 130.928 81.3082 131.422C82.0971 131.929 82.7042 132.6 83.1295 133.436C83.5548 134.271 83.7417 135.202 83.6902 136.227C83.6388 137.253 83.3596 138.16 82.8527 138.949C82.3459 139.737 81.6749 140.338 80.8399 140.75C80.0048 141.162 79.0813 141.342 78.0692 141.292C77.0571 141.241 76.1563 140.969 75.3668 140.475C74.5772 139.982 73.9764 139.317 73.5644 138.482C73.1391 137.647 72.9522 136.716 73.0037 135.691C73.0552 134.665 73.3343 133.758 73.8412 132.969C74.3348 132.18 74.9994 131.572 75.8351 131.147C76.6701 130.735 77.5937 130.554 78.6057 130.605ZM78.5426 131.864C77.7968 131.826 77.1227 131.959 76.52 132.263C75.9034 132.579 75.4129 133.041 75.0486 133.651C74.6842 134.26 74.482 134.964 74.4419 135.763C74.4018 136.562 74.5325 137.283 74.8339 137.925C75.1354 138.568 75.5774 139.071 76.16 139.434C76.7285 139.809 77.3857 140.016 78.1314 140.053C78.8771 140.091 79.5583 139.951 80.1749 139.635C80.7776 139.332 81.2677 138.876 81.6454 138.267C82.0097 137.658 82.2119 136.954 82.252 136.155C82.2922 135.356 82.1615 134.635 81.86 133.993C81.5452 133.349 81.1035 132.84 80.535 132.464C79.9524 132.101 79.2883 131.901 78.5426 131.864Z" fill="black"/>
<path d="M58.1929 129.204L59.4272 125.631L60.6938 126.068L59.8643 128.469L68.7679 131.545L69.5974 129.145L70.8639 129.582L69.6295 133.155L69.0624 132.959C68.3814 132.766 67.7579 133.101 67.1919 133.963C66.6259 134.826 66.0049 136.092 65.3289 137.763L64.0471 141.044L56.7125 138.51L59.7429 129.739L58.1929 129.204ZM64.1263 137.263C64.6769 135.873 65.1994 134.749 65.6937 133.89C66.1836 133.043 66.7142 132.529 67.2855 132.345L61.0851 130.203L58.4661 137.783L63.2487 139.435L64.1263 137.263Z" fill="black"/>
<path d="M44.7879 133.884C43.632 133.143 42.9325 132.282 42.6896 131.303C42.4395 130.335 42.6779 129.284 43.405 128.15L46.9252 122.662L48.07 123.396L47.1845 124.777C47.749 124.489 48.3778 124.386 49.0709 124.466C49.7527 124.539 50.4527 124.806 51.171 125.267C52.1586 125.9 52.7931 126.64 53.0743 127.486C53.3555 128.331 53.2478 129.141 52.7511 129.916C52.2688 130.668 51.6107 131.101 50.7768 131.215C49.9318 131.323 48.9144 130.995 47.7248 130.232L44.9134 128.429L44.5679 128.967C44.0784 129.731 43.9209 130.445 44.0954 131.112C44.2627 131.789 44.756 132.391 45.5753 132.916C46.1364 133.276 46.7363 133.526 47.3749 133.667C48.0064 133.818 48.6117 133.85 49.1908 133.762L49.1572 135C48.4635 135.094 47.7376 135.04 46.9796 134.839C46.2143 134.649 45.4838 134.331 44.7879 133.884ZM50.3811 126.091C49.7077 125.659 49.0326 125.44 48.3556 125.433C47.6715 125.438 47.0244 125.656 46.4144 126.089L45.4857 127.536L48.2634 129.318C49.7785 130.29 50.8744 130.248 51.5511 129.193C51.8822 128.677 51.9486 128.142 51.7501 127.587C51.5445 127.043 51.0882 126.544 50.3811 126.091Z" fill="black"/>
<path d="M31.3907 116.333L32.7917 118.132L36.4839 115.256L37.3565 116.376L33.6643 119.252L35.0653 121.051L40.7361 120.715L41.7807 122.057L35.182 122.405L33.2969 128.284L32.3506 127.069L34.1028 121.8L32.7018 120.002L29.0569 122.841L28.1844 121.72L31.8292 118.881L30.4282 117.083L24.8784 117.476L23.9321 116.261L30.1099 115.86L32.0473 109.56L33.0919 110.901L31.3907 116.333Z" fill="black"/>
<path d="M20.1366 68.5708L15.2563 71.1589L19.0581 75.1834L18.8005 76.7626L14.1406 71.7875L8.44989 74.8716L8.70746 73.2925L13.2824 70.837L9.72486 67.0549L9.97599 65.5153L14.3917 70.2479L20.3974 66.9719L20.1366 68.5708Z" fill="black"/>
<path d="M10.5239 57.8257L11.135 56.5439L18.6814 60.1413L14.1558 50.2071L14.698 49.0697L24.1942 53.5966L23.5831 54.8784L16.0368 51.281L20.5709 61.1972L20.0201 62.3526L10.5239 57.8257Z" fill="black"/>
<path d="M23.444 37.3079L21.056 40.4919L28.464 46.0479L27.612 47.1839L20.204 41.6279L17.816 44.812L16.808 44.056L22.436 36.5519L23.444 37.3079Z" fill="black"/>
<path d="M38.2002 20.2636L43.6836 29.2415L42.4717 29.9817L37.6451 22.079L32.0126 25.5192L36.8392 33.4218L35.6274 34.162L30.144 25.184L38.2002 20.2636Z" fill="black"/>
<path d="M51.3781 13.1616C52.3304 12.9035 53.2519 12.8886 54.1427 13.1169C55.0299 13.3323 55.7987 13.7733 56.4489 14.4397C57.0992 15.1062 57.5604 15.9413 57.8324 16.9451C58.1079 17.9618 58.1333 18.9219 57.9084 19.8255C57.6836 20.7291 57.2444 21.5043 56.5909 22.1511C55.9467 22.7815 55.142 23.2275 54.1768 23.4891C53.3532 23.7123 52.5614 23.7472 51.8015 23.594C51.0511 23.4244 50.3745 23.069 49.772 22.5277L51.3047 28.1837L49.9342 28.5551L46.1677 14.6564L47.4804 14.3007L48.0244 16.3083C48.2549 15.5275 48.6559 14.8663 49.2274 14.3246C49.8118 13.7794 50.5287 13.3917 51.3781 13.1616ZM53.7507 22.2991C54.4585 22.1073 55.0584 21.772 55.5503 21.2934C56.0387 20.8018 56.3619 20.2101 56.5197 19.518C56.6904 18.8225 56.6711 18.0887 56.4618 17.3165C56.2526 16.5444 55.9005 15.9076 55.4054 15.4063C54.9198 14.8887 54.3421 14.541 53.6723 14.3633C53.0025 14.1857 52.3137 14.1927 51.6059 14.3846C50.8852 14.5799 50.2807 14.9233 49.7922 15.4148C49.3167 15.9029 48.9935 16.4946 48.8229 17.1902C48.6616 17.8693 48.6855 18.595 48.8948 19.3671C49.104 20.1393 49.4515 20.7842 49.9371 21.3019C50.4356 21.816 51.0133 22.1637 51.6702 22.3448C52.3365 22.5096 53.03 22.4944 53.7507 22.2991Z" fill="black"/>
<path d="M67.5073 20.0503C66.494 20.0582 65.5789 19.8385 64.7621 19.3915C63.9452 18.9311 63.3003 18.2961 62.8273 17.4864C62.3544 16.6767 62.114 15.7585 62.106 14.7319C62.0981 13.7052 62.3243 12.7835 62.7847 11.9665C63.2451 11.1496 63.8802 10.5114 64.69 10.0518C65.4998 9.59218 66.4114 9.35847 67.4247 9.35065C68.438 9.34282 69.353 9.56243 70.1698 10.0095C70.9866 10.4565 71.6248 11.0849 72.0844 11.8947C72.5574 12.7045 72.7978 13.6226 72.8057 14.6493C72.8137 15.6759 72.5874 16.5977 72.1271 17.4146C71.68 18.2314 71.0516 18.8763 70.2419 19.3492C69.4321 19.8088 68.5206 20.0425 67.5073 20.0503ZM67.4975 18.7904C68.2442 18.7846 68.9095 18.6128 69.4936 18.2749C70.0909 17.9237 70.5538 17.4334 70.8823 16.8042C71.2108 16.175 71.3719 15.4604 71.3658 14.6604C71.3596 13.8604 71.1874 13.1484 70.8493 12.5243C70.5111 11.9002 70.0407 11.4238 69.4382 11.0952C68.8489 10.753 68.1809 10.5848 67.4342 10.5906C66.6876 10.5964 66.0156 10.7749 65.4183 11.1262C64.8342 11.464 64.3713 11.9476 64.0295 12.577C63.701 13.2062 63.5398 13.9208 63.546 14.7208C63.5522 15.5207 63.7243 16.2328 64.0625 16.8568C64.414 17.4808 64.8844 17.9638 65.4737 18.306C66.0763 18.6347 66.7509 18.7961 67.4975 18.7904Z" fill="black"/>
<path d="M87.9753 20.4343L86.9451 24.0713L85.6559 23.7061L86.3481 21.2622L77.2846 18.6951L76.5924 21.1389L75.3031 20.7738L76.3332 17.1368L76.9105 17.3004C77.6014 17.4544 78.2049 17.0849 78.7212 16.1918C79.2374 15.2987 79.7857 13.9989 80.3661 12.2925L81.46 8.94389L88.9263 11.0586L86.3973 19.9874L87.9753 20.4343ZM81.5951 12.7238C81.1239 14.1424 80.666 15.2945 80.2211 16.1802C79.7799 17.0529 79.2793 17.5971 78.7194 17.8127L85.0311 19.6004L87.2167 11.884L82.3482 10.505L81.5951 12.7238Z" fill="black"/>
<path d="M101.732 15.0912C102.925 15.7723 103.668 16.5956 103.961 17.5614C104.26 18.5155 104.076 19.5773 103.408 20.7467L100.175 26.4086L98.9943 25.7342L99.8075 24.3101C99.2586 24.6261 98.636 24.7619 97.9397 24.7175C97.255 24.6796 96.5422 24.4491 95.8011 24.026C94.7822 23.4442 94.1106 22.7382 93.7862 21.9081C93.4618 21.078 93.5277 20.2634 93.9839 19.4645C94.4269 18.6888 95.0618 18.2222 95.8887 18.0648C96.7271 17.9141 97.76 18.1892 98.9873 18.89L101.888 20.5463L102.205 19.9905C102.655 19.2031 102.775 18.4812 102.567 17.8247C102.365 17.1567 101.841 16.5813 100.996 16.0986C100.417 15.768 99.8049 15.5491 99.1599 15.4418C98.5215 15.3229 97.9154 15.3223 97.3416 15.4398L97.3114 14.202C97.9994 14.0728 98.7271 14.0891 99.4945 14.251C100.268 14.4012 101.014 14.6813 101.732 15.0912ZM96.5476 23.1625C97.2423 23.5592 97.9278 23.7434 98.6042 23.7151C99.2872 23.6752 99.9222 23.4236 100.509 22.9604L101.362 21.4667L98.4964 19.8303C96.9333 18.9377 95.841 19.0356 95.2195 20.124C94.9154 20.6566 94.8766 21.195 95.1034 21.739C95.3367 22.2714 95.8181 22.7459 96.5476 23.1625Z" fill="black"/>
<path d="M116.515 31.8677L115.024 30.1427L111.483 33.2029L110.555 32.1285L114.096 29.0683L112.605 27.3433L106.959 27.9672L105.847 26.681L112.419 25.9969L114.003 20.0292L115.01 21.1943L113.528 26.5456L115.019 28.2706L118.514 25.2497L119.443 26.324L115.947 29.345L117.438 31.07L122.961 30.3945L123.968 31.5597L117.818 32.2746L116.205 38.6655L115.093 37.3793L116.515 31.8677Z" fill="black"/>
<circle cx="18" cy="96" r="5" fill="black"/>
<circle cx="131" cy="54" r="5" fill="black"/>
</svg>
