<svg width="229" height="228" viewBox="0 0 229 228" fill="none" xmlns="http://www.w3.org/2000/svg">
<path d="M115.433 219.54L113.514 219.474L113.782 211.758L107.018 219.248L105.279 219.188L105.647 208.594L107.566 208.661L107.298 216.376L114.042 208.886L115.801 208.947L115.433 219.54Z" fill="black"/>
<path d="M188.938 188.038L181.071 180.934L182.358 179.509L188.978 185.487L192.986 181.049L186.366 175.071L187.653 173.646L195.519 180.75L188.938 188.038Z" fill="black"/>
<path d="M173.427 194.621C173.334 194.508 173.222 194.35 173.09 194.147L179.738 188.691C179.053 188.046 178.261 187.722 177.361 187.718C176.46 187.734 175.607 188.071 174.803 188.731C173.824 189.535 173.306 190.512 173.25 191.662L171.644 191.376C171.66 190.638 171.853 189.928 172.223 189.244C172.583 188.569 173.104 187.953 173.784 187.394C174.65 186.684 175.561 186.229 176.519 186.03C177.485 185.841 178.416 185.913 179.311 186.248C180.196 186.591 180.969 187.164 181.628 187.968C182.28 188.762 182.692 189.622 182.866 190.548C183.03 191.484 182.947 192.38 182.616 193.238C182.283 194.115 181.725 194.874 180.942 195.517C180.159 196.16 179.315 196.551 178.411 196.689C177.505 196.846 176.619 196.745 175.755 196.385C174.88 196.034 174.104 195.446 173.427 194.621ZM179.914 194.265C180.625 193.681 181.045 192.974 181.175 192.144C181.293 191.322 181.106 190.527 180.614 189.758L175.357 194.072C176.007 194.695 176.751 195.024 177.591 195.059C178.428 195.113 179.203 194.849 179.914 194.265Z" fill="black"/>
<path d="M167.326 204.698C166.444 205.223 165.538 205.499 164.607 205.526C163.676 205.553 162.808 205.333 162.002 204.866C161.185 204.406 160.503 203.718 159.958 202.802C159.412 201.885 159.128 200.952 159.105 200.003C159.079 199.073 159.299 198.204 159.765 197.399C160.232 196.593 160.906 195.927 161.788 195.402C162.441 195.013 163.118 194.781 163.818 194.705C164.506 194.636 165.183 194.73 165.847 194.986L163.043 190.278L164.692 189.295L172.103 201.735L170.522 202.677L169.662 201.234C169.596 201.956 169.357 202.611 168.946 203.197C168.542 203.795 168.002 204.295 167.326 204.698ZM162.786 196.763C162.202 197.111 161.759 197.554 161.458 198.09C161.152 198.645 161.01 199.241 161.033 199.879C161.052 200.535 161.249 201.179 161.624 201.809C161.999 202.439 162.468 202.912 163.029 203.23C163.586 203.565 164.178 203.725 164.805 203.709C165.42 203.699 166.019 203.52 166.604 203.172C167.176 202.831 167.616 202.383 167.922 201.829C168.223 201.292 168.368 200.701 168.356 200.057C168.333 199.419 168.134 198.785 167.758 198.154C167.383 197.524 166.917 197.042 166.36 196.706C165.81 196.382 165.218 196.222 164.585 196.227C163.958 196.243 163.358 196.422 162.786 196.763Z" fill="black"/>
<path d="M147.228 208.547C147.173 208.411 147.113 208.227 147.047 207.994L155.017 204.763C154.555 203.943 153.895 203.398 153.037 203.127C152.172 202.873 151.257 202.942 150.294 203.333C149.12 203.809 148.335 204.587 147.939 205.669L146.491 204.918C146.725 204.219 147.121 203.598 147.678 203.055C148.222 202.518 148.902 202.084 149.718 201.753C150.756 201.333 151.762 201.169 152.735 201.264C153.714 201.371 154.581 201.717 155.336 202.303C156.079 202.893 156.646 203.671 157.037 204.635C157.423 205.586 157.561 206.53 157.451 207.466C157.329 208.408 156.983 209.239 156.412 209.96C155.833 210.698 155.075 211.257 154.136 211.638C153.197 212.019 152.275 212.14 151.37 212.004C150.459 211.884 149.644 211.524 148.925 210.923C148.195 210.327 147.629 209.535 147.228 208.547ZM153.527 210.136C154.38 209.791 154.991 209.241 155.361 208.486C155.719 207.737 155.777 206.922 155.536 206.042L149.234 208.597C149.668 209.385 150.281 209.92 151.072 210.204C151.856 210.505 152.674 210.482 153.527 210.136Z" fill="black"/>
<path d="M143.241 215.261L141.374 215.707L139.582 208.198L135.051 217.215L133.359 217.619L130.898 207.309L132.766 206.863L134.558 214.372L139.069 205.359L140.781 204.951L143.241 215.261ZM138.737 217.755C139.697 217.526 140.496 217.575 141.137 217.902C141.78 218.242 142.211 218.845 142.432 219.71L141.167 220.012C141.04 219.535 140.785 219.185 140.402 218.961C140.01 218.753 139.548 218.713 139.016 218.839C138.485 218.966 138.091 219.211 137.834 219.574C137.581 219.949 137.506 220.379 137.607 220.862L136.304 221.173C136.109 220.301 136.229 219.566 136.662 218.969C137.099 218.386 137.79 217.981 138.737 217.755Z" fill="black"/>
<path d="M120.28 217.947L124.141 217.559L123.248 208.684L125.158 208.492L126.051 217.367L129.912 216.979L130.08 218.65L120.448 219.619L120.28 217.947Z" fill="black"/>
<path d="M39.1152 187.905L46.305 180.116L47.7158 181.419L41.6655 187.973L46.0596 192.029L52.1099 185.475L53.5207 186.777L46.3309 194.566L39.1152 187.905Z" fill="black"/>
<path d="M39.793 172.901C40.5023 173.785 40.9463 174.711 41.1248 175.679C41.295 176.636 41.2131 177.557 40.8792 178.44C40.537 179.313 39.9552 180.079 39.1337 180.739C38.3122 181.398 37.4424 181.805 36.5244 181.961C35.598 182.106 34.7076 182.008 33.8533 181.668C32.9803 181.326 32.2267 180.76 31.5924 179.97C30.9498 179.169 30.5591 178.32 30.4202 177.423C30.2814 176.525 30.3966 175.646 30.7659 174.786C31.1165 173.923 31.7181 173.15 32.5708 172.465C32.6332 172.415 32.7101 172.362 32.8017 172.306C32.8849 172.239 32.967 172.182 33.0482 172.134L38.6939 179.168L37.6177 180.032L32.5978 173.777L33.4604 174.085C32.9217 174.5 32.5362 174.989 32.3039 175.552C32.0715 176.114 32.0037 176.69 32.1004 177.279C32.1784 177.867 32.4302 178.425 32.8558 178.956C33.2731 179.476 33.7641 179.842 34.3287 180.056C34.8829 180.278 35.465 180.332 36.075 180.219C36.6745 180.114 37.2447 179.844 37.7854 179.41L38.0349 179.21C38.5861 178.768 38.9799 178.246 39.2163 177.646C39.434 177.044 39.4788 176.418 39.3508 175.769C39.2228 175.119 38.9209 174.498 38.4452 173.906C38.0529 173.417 37.6151 173.042 37.1316 172.78C36.6397 172.508 36.1064 172.355 35.5316 172.32L35.8352 170.717C36.5724 170.741 37.2807 170.942 37.9601 171.32C38.6312 171.688 39.2421 172.214 39.793 172.901Z" fill="black"/>
<path d="M22.4201 166.363C21.9045 165.475 21.6384 164.566 21.6219 163.635C21.6054 162.704 21.8349 161.838 22.3105 161.038C22.7794 160.226 23.4751 159.552 24.3974 159.016C25.3198 158.48 26.2556 158.207 27.2048 158.195C28.1358 158.178 29.0015 158.408 29.8021 158.884C30.6026 159.359 31.2607 160.041 31.7763 160.929C32.158 161.586 32.3828 162.265 32.4506 162.965C32.5117 163.655 32.4107 164.33 32.1474 164.992L36.886 162.239L37.8504 163.9L25.3294 171.173L24.4052 169.582L25.8579 168.738C25.1363 168.663 24.4846 168.417 23.9028 168C23.3095 167.589 22.8153 167.043 22.4201 166.363ZM30.404 161.911C30.0624 161.323 29.6251 160.875 29.0921 160.568C28.5408 160.256 27.946 160.108 27.3078 160.124C26.6513 160.135 26.0059 160.325 25.3718 160.694C24.7377 161.062 24.2589 161.525 23.9354 162.083C23.5936 162.636 23.4275 163.226 23.4369 163.853C23.4396 164.468 23.6117 165.07 23.9532 165.658C24.2881 166.234 24.7311 166.678 25.2824 166.99C25.8155 167.298 26.4045 167.449 27.0494 167.444C27.6877 167.428 28.3239 167.236 28.958 166.868C29.5921 166.499 30.0801 166.039 30.4218 165.485C30.752 164.939 30.9182 164.349 30.9203 163.716C30.9109 163.089 30.7388 162.487 30.404 161.911Z" fill="black"/>
<path d="M19.5711 146.292C19.7074 146.238 19.8921 146.179 20.125 146.115L23.2966 154.109C24.1199 153.653 24.6701 152.997 24.9474 152.141C25.2073 151.278 25.1455 150.363 24.7619 149.396C24.2948 148.219 23.522 147.428 22.4436 147.024L23.2053 145.581C23.9029 145.821 24.5207 146.221 25.0589 146.783C25.5922 147.331 26.0211 148.015 26.3456 148.833C26.7587 149.874 26.9143 150.88 26.8126 151.853C26.6984 152.831 26.3456 153.695 25.7543 154.446C25.158 155.185 24.3765 155.746 23.4098 156.13C22.4555 156.508 21.5105 156.639 20.575 156.523C19.6345 156.394 18.806 156.041 18.0896 155.465C17.3559 154.881 16.8021 154.118 16.4284 153.176C16.0547 152.234 15.9397 151.312 16.0834 150.408C16.2097 149.497 16.5759 148.685 17.1821 147.971C17.7833 147.245 18.5796 146.685 19.5711 146.292ZM17.9343 152.579C18.2735 153.434 18.819 154.049 19.5706 154.425C20.3174 154.789 21.1318 154.853 22.0139 154.618L19.5061 148.297C18.715 148.726 18.1748 149.335 17.8854 150.124C17.5787 150.905 17.595 151.723 17.9343 152.579Z" fill="black"/>
<path d="M12.7673 142.3L12.3359 140.429L19.8585 138.695L10.8754 134.095L10.4844 132.4L20.8133 130.018L21.2448 131.889L13.7222 133.624L22.7008 138.203L23.0962 139.918L12.7673 142.3ZM10.3081 137.777C10.5298 138.738 10.4747 139.538 10.1428 140.176C9.79789 140.816 9.19169 141.243 8.3242 141.457L8.0321 140.19C8.50982 140.066 8.86214 139.814 9.08906 139.433C9.3 139.043 9.34405 138.581 9.22122 138.048C9.09839 137.516 8.85661 137.12 8.49587 136.861C8.12215 136.605 7.69343 136.526 7.20972 136.624L6.90863 135.318C7.78212 135.13 8.51564 135.255 9.10919 135.693C9.68975 136.134 10.0894 136.829 10.3081 137.777Z" fill="black"/>
<path d="M10.1349 119.35L10.4934 123.214L19.3753 122.389L19.5527 124.301L10.6709 125.125L11.0295 128.989L9.35666 129.144L8.46206 119.505L10.1349 119.35Z" fill="black"/>
<path d="M8.47137 114.498L8.55285 112.58L16.2659 112.908L8.82869 106.086L8.90254 104.347L19.493 104.797L19.4115 106.715L11.6985 106.388L19.1365 113.19L19.0618 114.948L8.47137 114.498Z" fill="black"/>
<path d="M36.9554 42.5031L45.0505 49.3463L43.811 50.8126L36.9989 45.0539L33.1383 49.6208L39.9504 55.3794L38.7108 56.8457L30.6158 50.0025L36.9554 42.5031Z" fill="black"/>
<path d="M51.6737 35.8018C51.7704 35.9121 51.8879 36.0663 52.0261 36.2643L45.5605 41.9349C46.2661 42.5574 47.0685 42.8557 47.9678 42.8295C48.8684 42.7846 49.7096 42.4193 50.4915 41.7335C51.4438 40.8983 51.9293 39.905 51.9481 38.7535L53.5626 38.9868C53.571 39.7244 53.4012 40.4407 53.0533 41.136C52.7155 41.8225 52.2157 42.4559 51.5541 43.0361C50.7121 43.7746 49.8158 44.2592 48.8653 44.4898C47.906 44.7104 46.9734 44.6682 46.0675 44.3632C45.1715 44.0494 44.3807 43.5016 43.695 42.7197C43.018 41.9478 42.5774 41.1017 42.3732 40.1812C42.1789 39.252 42.2331 38.3533 42.5356 37.485C42.8394 36.5978 43.3722 35.8202 44.134 35.152C44.8959 34.4838 45.7264 34.0658 46.6255 33.898C47.5259 33.7113 48.414 33.7837 49.2899 34.115C50.1758 34.4376 50.9704 34.9999 51.6737 35.8018ZM45.2022 36.37C44.5105 36.9766 44.1138 37.697 44.0119 38.5312C43.92 39.3567 44.1329 40.1454 44.6505 40.8973L49.7629 36.4136C49.0937 35.8123 48.3389 35.5078 47.4985 35.5C46.6593 35.4733 45.8939 35.7633 45.2022 36.37Z" fill="black"/>
<path d="M57.7773 24.9478C58.6415 24.3935 59.5383 24.0875 60.4676 24.03C61.397 23.9724 62.272 24.1636 63.0927 24.6034C63.9247 25.0361 64.6286 25.7013 65.2045 26.5992C65.7804 27.497 66.0951 28.4198 66.1486 29.3676C66.2062 30.2969 66.015 31.172 65.5752 31.9927C65.1353 32.8134 64.4833 33.5009 63.6192 34.0552C62.9795 34.4655 62.3111 34.72 61.614 34.8187C60.9281 34.9101 60.2489 34.8389 59.5761 34.6051L62.5349 39.2178L60.9187 40.2544L53.1008 28.0662L54.6496 27.0728L55.5567 28.4869C55.5991 27.7627 55.816 27.1008 56.2076 26.5012C56.5919 25.8903 57.1152 25.3725 57.7773 24.9478ZM62.5774 32.7275C63.1498 32.3604 63.5777 31.9038 63.861 31.3577C64.1484 30.7932 64.27 30.1925 64.2257 29.5555C64.1855 28.9002 63.9675 28.2638 63.5715 27.6466C63.1756 27.0293 62.6918 26.5714 62.1201 26.2728C61.5524 25.9558 60.9557 25.8158 60.33 25.8528C59.7155 25.8826 59.1221 26.0811 58.5497 26.4483C57.9886 26.8082 57.5643 27.2704 57.2769 27.8349C56.9936 28.381 56.8684 28.9761 56.9014 29.6202C56.9456 30.2572 57.1657 30.8843 57.5616 31.5015C57.9576 32.1188 58.4394 32.5859 59.0071 32.903C59.5675 33.2088 60.1642 33.3487 60.7971 33.3229C61.4229 33.2859 62.0163 33.0874 62.5774 32.7275Z" fill="black"/>
<path d="M77.0764 20.8588C77.1365 20.9926 77.2037 21.1744 77.2778 21.4042L69.4341 24.9307C69.9262 25.7328 70.6061 26.2531 71.4735 26.4917C72.3477 26.7127 73.259 26.6099 74.2076 26.1835C75.3628 25.664 76.1182 24.8566 76.4736 23.7612L77.9488 24.4575C77.7407 25.1651 77.3684 25.8003 76.832 26.3631C76.3078 26.9204 75.6443 27.3795 74.8417 27.7403C73.8202 28.1996 72.8213 28.4002 71.845 28.3421C70.8632 28.2719 69.9839 27.9582 69.2071 27.401C68.4425 26.8384 67.8469 26.0829 67.4205 25.1343C66.9995 24.198 66.8262 23.2598 66.9007 22.32C66.9873 21.3746 67.3025 20.5312 67.8463 19.7897C68.3967 19.0306 69.1341 18.4432 70.0583 18.0277C70.9825 17.6122 71.899 17.4559 72.8079 17.559C73.7234 17.6444 74.5513 17.9738 75.2916 18.5474C76.0441 19.1155 76.639 19.8859 77.0764 20.8588ZM70.7226 19.5052C69.8835 19.8825 69.293 20.455 68.9511 21.2227C68.6213 21.9849 68.5937 22.8014 68.8682 23.6721L75.0702 20.8837C74.6066 20.1126 73.9742 19.6002 73.173 19.3464C72.3785 19.075 71.5617 19.128 70.7226 19.5052Z" fill="black"/>
<path d="M81.0212 13.6059L82.8725 13.0967L84.92 20.5402L89.1397 11.3727L90.8174 10.9113L93.6287 21.1317L91.7775 21.6409L89.73 14.1973L85.5295 23.3595L83.8325 23.8263L81.0212 13.6059ZM85.4376 10.9598C84.4863 11.2215 83.6852 11.1999 83.0343 10.8949C82.3799 10.5771 81.9278 9.98924 81.678 9.13144L82.9315 8.78665C83.0752 9.25878 83.342 9.60026 83.7318 9.81107C84.131 10.0055 84.5942 10.0302 85.1213 9.88523C85.6484 9.74024 86.0337 9.48213 86.2773 9.11089C86.5174 8.7268 86.5784 8.29516 86.4604 7.81595L87.7524 7.46056C87.9765 8.32544 87.8822 9.06355 87.4696 9.67488C87.0534 10.2734 86.3761 10.7017 85.4376 10.9598Z" fill="black"/>
<path d="M105.026 10.6765L101.182 11.1981L102.381 20.0371L100.478 20.2952L99.2791 11.4562L95.4343 11.9778L95.2085 10.313L104.801 9.01171L105.026 10.6765Z" fill="black"/>
<path d="M108.86 8.4H110.78V16.12L117.28 8.4H119.02V19H117.1V11.28L110.62 19H108.86V8.4Z" fill="black"/>
<path d="M182.103 32.7893L175.62 41.1757L174.101 40.0014L179.557 32.9442L174.826 29.2868L169.37 36.344L167.851 35.1697L174.334 26.7834L182.103 32.7893Z" fill="black"/>
<path d="M189.971 47.7791C189.866 47.8805 189.717 48.0046 189.525 48.1513L183.578 41.9391C182.987 42.6712 182.724 43.4859 182.789 44.3832C182.873 45.2809 183.275 46.1054 183.994 46.8566C184.87 47.7716 185.883 48.2133 187.035 48.1819L186.872 49.805C186.135 49.8456 185.412 49.7072 184.703 49.39C184.002 49.0824 183.347 48.6107 182.739 47.975C181.964 47.166 181.441 46.2917 181.169 45.3522C180.907 44.4034 180.909 43.4699 181.174 42.5515C181.448 41.6427 181.961 40.8287 182.712 40.1096C183.454 39.3996 184.28 38.9225 185.191 38.6783C186.111 38.4438 187.011 38.4587 187.892 38.7231C188.791 38.9879 189.591 39.4863 190.292 40.2182C190.993 40.9502 191.446 41.7617 191.653 42.6527C191.879 43.544 191.846 44.4345 191.553 45.324C191.269 46.2231 190.742 47.0415 189.971 47.7791ZM189.122 41.3385C188.486 40.6739 187.748 40.309 186.911 40.2435C186.082 40.1877 185.303 40.4348 184.575 40.9848L189.277 45.8967C189.848 45.2019 190.12 44.4346 190.091 43.5946C190.081 42.7551 189.758 42.0031 189.122 41.3385Z" fill="black"/>
<path d="M200.568 52.9054C201.163 53.7422 201.511 54.6234 201.613 55.549C201.715 56.4745 201.566 57.3577 201.165 58.1984C200.773 59.05 200.142 59.7847 199.272 60.4027C198.403 61.0207 197.496 61.3789 196.552 61.4775C195.626 61.5792 194.743 61.4299 193.902 61.0296C193.062 60.6293 192.344 60.0108 191.749 59.174C191.309 58.5545 191.023 57.899 190.891 57.2074C190.767 56.5267 190.806 55.8448 191.008 55.1617L186.541 58.3365L185.429 56.7716L197.231 48.3826L198.297 49.8823L196.928 50.8556C197.653 50.8635 198.324 51.0488 198.942 51.4113C199.571 51.7662 200.113 52.2642 200.568 52.9054ZM193.026 58.0702C193.42 58.6245 193.896 59.0301 194.455 59.2872C195.033 59.5474 195.639 59.6402 196.273 59.5657C196.925 59.4944 197.551 59.2463 198.148 58.8215C198.746 58.3966 199.18 57.8915 199.452 57.3063C199.741 56.7242 199.853 56.1215 199.786 55.4982C199.727 54.8859 199.5 54.3025 199.106 53.7483C198.72 53.2049 198.238 52.8031 197.661 52.5429C197.102 52.2859 196.501 52.1892 195.86 52.2528C195.225 52.3273 194.61 52.5769 194.012 53.0018C193.414 53.4267 192.97 53.9301 192.681 54.5123C192.402 55.0866 192.291 55.6893 192.346 56.3203C192.413 56.9435 192.64 57.5269 193.026 58.0702Z" fill="black"/>
<path d="M205.866 73.4107C205.735 73.4767 205.556 73.5519 205.33 73.6362L201.457 65.9574C200.678 66.4849 200.188 67.1872 199.989 68.0644C199.807 68.9476 199.95 69.8534 200.418 70.782C200.989 71.913 201.829 72.6316 202.939 72.9378L202.309 74.4426C201.593 74.2662 200.942 73.9226 200.356 73.4119C199.776 72.913 199.288 72.2707 198.891 71.485C198.387 70.4849 198.142 69.4959 198.156 68.518C198.183 67.534 198.457 66.6416 198.979 65.8408C199.507 65.0519 200.235 64.4232 201.164 63.9549C202.081 63.4926 203.01 63.2777 203.952 63.3102C204.901 63.3546 205.757 63.6319 206.522 64.1421C207.305 64.6582 207.925 65.3686 208.381 66.2734C208.837 67.1781 209.034 68.0868 208.972 68.9993C208.927 69.9178 208.635 70.7595 208.095 71.5247C207.561 72.3017 206.818 72.9304 205.866 73.4107ZM206.935 67.0029C206.52 66.1814 205.922 65.617 205.14 65.3096C204.364 65.0142 203.547 65.023 202.689 65.336L205.751 71.4076C206.501 70.91 206.985 70.2554 207.202 69.4437C207.438 68.6379 207.349 67.8243 206.935 67.0029Z" fill="black"/>
<path d="M212.584 76.3622L213.177 78.1884L205.834 80.5715L215.184 84.371L215.721 86.026L205.638 89.2981L205.046 87.4719L212.389 85.0888L203.045 81.3083L202.502 79.6343L212.584 76.3622ZM215.428 80.6539C215.124 79.7155 215.109 78.9142 215.384 78.2502C215.672 77.582 216.238 77.1037 217.084 76.8153L217.485 78.0518C217.02 78.2168 216.691 78.4988 216.498 78.8978C216.322 79.3054 216.318 79.7692 216.487 80.2892C216.656 80.8091 216.931 81.1824 217.313 81.4089C217.708 81.6313 218.142 81.6727 218.615 81.5331L219.029 82.8076C218.175 83.0707 217.433 83.01 216.804 82.6255C216.187 82.2369 215.729 81.5797 215.428 80.6539Z" fill="black"/>
<path d="M216.84 99.4137L216.142 95.5969L207.367 97.2011L207.022 95.3124L215.797 93.7082L215.099 89.8915L216.751 89.5894L218.492 99.1115L216.84 99.4137Z" fill="black"/>
<path d="M219.695 104.247L219.784 106.165L212.072 106.522L220.085 112.658L220.165 114.396L209.577 114.887L209.488 112.969L217.2 112.611L209.188 106.496L209.106 104.738L219.695 104.247Z" fill="black"/>
<circle cx="75" cy="208" r="5" fill="black"/>
<circle cx="209" cy="148" r="5" fill="black"/>
<circle cx="21" cy="77" r="5" fill="black"/>
<circle cx="147" cy="20" r="5" fill="black"/>
</svg>
