<svg width="40" height="40" viewBox="0 0 40 40" fill="none" xmlns="http://www.w3.org/2000/svg">
<rect width="40" height="40" rx="20" fill="url(#paint0_radial_29_789)"/>
<path d="M26.6588 26.743C25.067 27.7404 23.2282 28.2707 21.3495 28.2707L18.2119 28.2707L18.2119 24.0545H21.3495C22.511 24.0545 23.6465 23.7073 24.6123 23.0569C25.4982 22.4603 26.2049 21.6331 26.6588 20.6655V26.743Z" fill="url(#paint1_linear_29_789)"/>
<path d="M24.6124 23.0567C24.2802 23.2804 23.928 23.4682 23.5616 23.6184V28.0223C24.7599 27.75 25.9048 27.2573 26.9366 26.5625C28.5903 25.4488 29.8793 23.8659 30.6404 22.0139C31.4016 20.1619 31.6007 18.124 31.2127 16.158C30.8247 14.1919 29.8669 12.386 28.4605 10.9686C27.0541 9.55112 25.2622 8.58582 23.3115 8.19475C21.3608 7.80368 19.3388 8.00439 17.5012 8.77151C15.6637 9.53862 14.0931 10.8377 12.9881 12.5044C11.8831 14.1712 11.2933 16.1307 11.2933 18.1353L15.4767 18.1353C15.4767 16.9646 15.8211 15.8202 16.4665 14.8469C17.1118 13.8735 18.029 13.1148 19.1021 12.6668C20.1753 12.2188 21.3561 12.1016 22.4953 12.33C23.6346 12.5584 24.681 13.1221 25.5024 13.9499C26.3237 14.7777 26.883 15.8324 27.1096 16.9805C27.3363 18.1287 27.2199 19.3188 26.7754 20.4004C26.3309 21.4819 25.5782 22.4064 24.6124 23.0567Z" fill="white"/>
<path d="M9 20.7699L15.5969 20.7701V32H11.4135V24.5132H9V20.7699Z" fill="white"/>
<defs>
<radialGradient id="paint0_radial_29_789" cx="0" cy="0" r="1" gradientUnits="userSpaceOnUse" gradientTransform="translate(20 20) rotate(90) scale(24.3871)">
<stop stop-color="#3459FF"/>
<stop offset="1" stop-color="#032BD9"/>
</radialGradient>
<linearGradient id="paint1_linear_29_789" x1="23.3704" y1="25.5545" x2="18.5132" y2="25.5584" gradientUnits="userSpaceOnUse">
<stop stop-color="white"/>
<stop offset="1" stop-color="white" stop-opacity="0"/>
</linearGradient>
</defs>
</svg>
