<svg width="278" height="167" viewBox="0 0 278 167" fill="none" xmlns="http://www.w3.org/2000/svg">
<path fill-rule="evenodd" clip-rule="evenodd" d="M137.904 9.1841C130.138 12.4294 120.725 8.69487 112.028 8.57863C101.768 8.44153 91.774 8.42259 81.5196 8.43057C64.6245 8.44372 45.8632 1.49823 31.2733 8.64151C18.5713 14.8604 16.1357 30.4944 11.4051 42.759C6.43704 55.6391 -4.16399 70.1456 2.70873 82.6983C10.5635 97.0447 35.5594 96.6405 47.4748 108.639C56.2866 117.513 49.1041 136.493 61.0963 141.494C75.1801 147.366 90.7684 127.857 105.286 132.744C120.04 137.711 118.513 166.514 134.07 166.06C149.813 165.601 145.987 139.249 158.588 131.189C167.711 125.354 185.518 138.536 196.739 136.978C214.489 134.515 223.906 127.901 226.058 111.985C228.683 92.5791 287.151 87.0077 275.662 69.8904C270.94 62.8552 233.219 58.3129 235.381 50.5475C239.831 34.5717 250.854 42.4591 248.297 25.9364C246.252 12.7216 210.034 0.119719 195.18 0.717341C174.251 1.55939 156.647 1.35131 137.904 9.1841Z" fill="#8AB8FF"/>
</svg>
