<svg width="318" height="273" viewBox="0 0 318 273" fill="none" xmlns="http://www.w3.org/2000/svg">
<path d="M0 211.148V166.397C12.0197 158.301 23.9305 149.604 26.2962 138.397C28.8011 126.53 20.9156 115.278 13.1789 104.238C4.71056 92.1538 -3.5795 80.3242 2.12938 68.2217C8.42263 54.8804 24.5603 53.5534 41.1365 52.1903C51.0564 51.3746 61.1335 50.546 69.3517 47.1218C77.8921 43.5634 85.6194 38.6061 93.3392 33.6537C101.606 28.3504 109.864 23.0526 119.103 19.4841C124.228 17.5043 129.609 14.8015 135.077 12.0552C151.125 3.99544 167.918 -4.43919 181.183 3.92543C193.809 11.887 195.695 27.4582 197.625 43.3933C198.904 53.9476 200.202 64.6615 204.652 73.4299C211.034 86.0038 220.216 97.4727 232.373 104.782C242.663 110.968 255.782 113.542 268.694 116.074C288.419 119.943 307.662 123.717 315.6 140.135C321.934 153.237 310.546 165.491 298.716 178.22C291.196 186.312 283.497 194.596 280.058 203.412C276.504 212.523 276.159 223.025 275.819 233.373C275.321 248.531 274.834 263.358 264.288 273H60.2054C61.4029 268.573 62.8768 264.078 64.3451 259.6C69.9193 242.599 75.4133 225.844 65.4023 213.961C55.8289 202.597 37.2349 205.647 19.0638 208.628C12.5061 209.704 6.0036 210.771 0 211.148Z" fill="#7DB0FF"/>
</svg>
