<svg width="49" height="19" viewBox="0 0 49 19" fill="none" xmlns="http://www.w3.org/2000/svg">
<path d="M19.7313 15.0268C19.7313 16.914 20.2663 17.7421 22.0051 17.7421L23.4954 15.8356C22.4063 15.7201 22.1388 15.5853 22.1388 15.0268V2.47119H19.7313V15.0268Z" fill="white"/>
<path d="M28.5125 6.32262C26.6209 6.32262 25.1115 6.91959 24.4236 8.05576L26.2961 9.26896C26.64 8.63347 27.4425 8.24833 28.4743 8.24833C29.659 8.24833 30.4233 8.53719 30.4233 9.69262V10.1355L28.3597 10.3281C25.9713 10.5784 24.2708 11.2139 24.2708 13.6981C24.2708 15.6431 25.5318 16.76 27.5572 16.76C28.6272 16.76 29.659 16.3363 30.6143 15.4505V16.4711H32.8308V9.76964C32.8308 7.11216 31.3022 6.32262 28.5125 6.32262ZM26.7547 13.6596C26.7547 12.4079 27.8247 12.1383 29.2004 12.0035L30.4233 11.8879V13.7751C30.0029 14.1218 29.6017 14.3721 29.1813 14.5647C28.7609 14.7572 28.3979 14.8343 28.1113 14.8343C27.2515 14.8343 26.7547 14.5454 26.7547 13.6596Z" fill="white"/>
<path d="M36.6458 2.68302C35.7095 2.68302 35.3274 3.01039 35.3274 3.91548C35.3274 4.80131 35.6904 5.14793 36.6458 5.14793C37.5629 5.14793 38.0024 4.85908 38.0024 3.91548C38.0024 2.99113 37.582 2.68302 36.6458 2.68302ZM35.4611 16.4711H37.8686V6.61147H35.4611V16.4711Z" fill="white"/>
<path d="M46.1531 16.4711H49L45.6181 11.4643L48.9809 6.61147H46.325L44.3188 9.73113L42.3698 6.61147H39.5611L42.8857 11.5991L39.5038 16.4711H42.1788L44.2041 13.3322L46.1531 16.4711Z" fill="white"/>
<path d="M13.98 14.8382C12.7198 15.6278 11.2641 16.0477 9.77677 16.0477L7.29285 16.0477L7.29285 12.7098H9.77677C10.6963 12.7098 11.5953 12.4349 12.3598 11.9201C13.0612 11.4477 13.6207 10.7929 13.98 10.0269V14.8382Z" fill="url(#paint0_linear_27_1093)"/>
<path d="M12.3599 11.92C12.0969 12.0971 11.8181 12.2458 11.528 12.3646V15.8511C12.4766 15.6355 13.383 15.2454 14.1999 14.6954C15.5091 13.8137 16.5295 12.5605 17.1321 11.0944C17.7347 9.62823 17.8923 8.01491 17.5851 6.45844C17.278 4.90198 16.5197 3.47227 15.4063 2.35012C14.2929 1.22797 12.8743 0.463779 11.33 0.154179C9.78565 -0.155421 8.18489 0.00347649 6.73016 0.610779C5.27542 1.21808 4.03203 2.24651 3.15723 3.56602C2.28243 4.88553 1.81551 6.43685 1.81551 8.02381L5.12741 8.02381C5.12741 7.09702 5.40009 6.19105 5.91098 5.42046C6.42186 4.64987 7.148 4.04926 7.99756 3.6946C8.84713 3.33994 9.78197 3.24714 10.6839 3.42795C11.5858 3.60875 12.4142 4.05504 13.0644 4.71038C13.7147 5.36571 14.1575 6.20066 14.3369 7.10963C14.5163 8.01861 14.4242 8.96079 14.0723 9.81703C13.7204 10.6733 13.1245 11.4051 12.3599 11.92Z" fill="white"/>
<path d="M0 10.1096L5.2226 10.1097V19.0001H1.91069V13.073H0V10.1096Z" fill="white"/>
<defs>
<linearGradient id="paint0_linear_27_1093" x1="11.3767" y1="13.8973" x2="7.53136" y2="13.9004" gradientUnits="userSpaceOnUse">
<stop stop-color="white"/>
<stop offset="1" stop-color="white" stop-opacity="0"/>
</linearGradient>
</defs>
</svg>
